<svg width="24" height="21" viewBox="0 0 24 21" fill="none" xmlns="http://www.w3.org/2000/svg">
<g clip-path="url(#clip0_16_32)">
<path d="M6.59749 16.378C6.68485 16.3052 6.79981 16.2626 6.92049 16.2626H23.3246C23.4716 16.2626 23.5397 16.422 23.4317 16.5157L18.4025 20.9079C18.3151 20.9808 18.2001 21.0234 18.0795 21.0234H1.67531C1.52833 21.0234 1.46023 20.8639 1.56823 20.7703L6.59749 16.378Z" fill="#1D2849"/>
<path d="M6.57631 3.11248C6.66367 3.03964 6.77863 2.99711 6.89931 2.99711H23.3035C23.4504 2.99711 23.5185 3.15649 23.4105 3.25011L18.3813 7.64239C18.2939 7.71523 18.1789 7.75781 18.0583 7.75781H1.65413C1.50715 7.75781 1.43905 7.59838 1.54705 7.50475L6.57631 3.11248Z" fill="#1D2849"/>
<path d="M18.4025 9.63617C18.3151 9.56333 18.2001 9.52075 18.0795 9.52075H1.67531C1.52833 9.52075 1.46023 9.68018 1.56823 9.77381L6.59749 14.166C6.68485 14.2389 6.79981 14.2815 6.92049 14.2815H23.3246C23.4716 14.2815 23.5397 14.1221 23.4317 14.0285L18.4025 9.63617Z" fill="#1D2849"/>
</g>
<defs>
<clipPath id="clip0_16_32">
<rect width="22.9307" height="21" fill="white" transform="matrix(1 0 0 -1 0.792175 21)"/>
</clipPath>
</defs>
</svg>
